<?xml version="1.0" encoding="UTF-8" standalone="no"?>
<!-- Created with Inkscape (http://www.inkscape.org/) -->
<!-- SVG modified by PrettyGoodName -->

<svg
   width="128"
   height="128"
   viewBox="0 0 128 128"
   version="1.1"
   id="Campground"
   xmlns="http://www.w3.org/2000/svg"
   xmlns:svg="http://www.w3.org/2000/svg"
   xmlns:rdf="http://www.w3.org/1999/02/22-rdf-syntax-ns#"
   xmlns:cc="http://creativecommons.org/ns#"
   xmlns:dc="http://purl.org/dc/elements/1.1/">
   <metadata id="metadata1">
      <rdf:RDF>
         <cc:Work
            rdf:about="">
            <dc:date>03/10/2026 (US date format)</dc:date>
            <dc:creator>
               <cc:Agent>
                  <dc:title>PrettyGoodName</dc:title>
               </cc:Agent>
            </dc:creator>
            <dc:title>Campground logo</dc:title>
            <dc:rights>
               <cc:Agent>
                  <dc:title>PrettyGoodName</dc:title>
               </cc:Agent>
            </dc:rights>
            <dc:publisher>
               <cc:Agent>
                  <dc:title>Campground</dc:title>
               </cc:Agent>
            </dc:publisher>
            <dc:identifier>campground-logo</dc:identifier>
            <dc:subject>
               <rdf:Bag>
                  <rdf:li>logomark logo brand branding icon favicon</rdf:li>
               </rdf:Bag>
            </dc:subject>
            <dc:description>Campground is federated chatting platform for the people.</dc:description>
            <cc:license
               rdf:resource="http://creativecommons.org/licenses/by-sa/4.0/" />
         </cc:Work>
         <cc:License
            rdf:about="http://creativecommons.org/licenses/by-sa/4.0/">
            <cc:permits
               rdf:resource="http://creativecommons.org/ns#Reproduction" />
            <cc:permits
               rdf:resource="http://creativecommons.org/ns#Distribution" />
            <cc:requires
               rdf:resource="http://creativecommons.org/ns#Notice" />
            <cc:requires
               rdf:resource="http://creativecommons.org/ns#Attribution" />
            <cc:permits
               rdf:resource="http://creativecommons.org/ns#DerivativeWorks" />
            <cc:requires
               rdf:resource="http://creativecommons.org/ns#ShareAlike" />
         </cc:License>
      </rdf:RDF>
   </metadata>
   <path id="CampgroundLogo"
      d="M 60.8311,69.74142 49.623213,91.571274 a 1.2996556,1.2996556 58.588438 0 0 1.156175,1.893259 h 3.819337 a 2.7316262,2.7316262 142.07782 0 0 2.64868,-2.063589 l 4.035548,-16.000411 a 0.53675239,0.53675239 3.8004694e-4 0 1 1.040909,7e-6 l 4.035318,16.000397 a 2.7315888,2.7315888 37.922562 0 0 2.648653,2.063596 h 17.060503 a 7.0290828,7.0290828 16.844861 0 1 3.898998,1.180509 l 12.261906,8.174498 a 1.1389927,1.1389927 151.84486 0 0 1.77079,-0.9477 l 0,-6.279095 a 2.1282119,2.1282119 135 0 1 2.12821,-2.128212 h 1.77158 a 1.2996506,1.2996506 121.41146 0 0 1.15617,-1.893256 L 100.15584,74.236409 C 99.618996,73.190792 98.763878,72.345622 98.245868,72.345953 82.77247,72.209028 70.681956,70.792781 63.802346,68.576087 62.683925,68.215718 61.367941,68.695802 60.8311,69.74142 Z"
      transform="matrix(1.8247901,0,0,2.1860492,-80.778157,-116.31827)" />
</svg>