<svg width="258" height="60" viewBox="0 0 258 60" fill="none" xmlns="http://www.w3.org/2000/svg">
<rect width="258" height="60" fill="white"/>
<path d="M29.2176 42.6112L28.3164 40.5L18.8013 16M29.2176 42.6112H49.2782C50.4194 42.6112 51.1426 41.3874 50.5922 40.3877L39.4159 20.0888C39.0488 19.4221 38.3341 19.0237 37.5734 19.0476C30.8316 19.2601 26.1234 18.6089 18.8013 16M29.2176 42.6112H18.8013ZM18.8013 16L9.29027 40.5697C8.90976 41.5527 9.63507 42.6112 10.6891 42.6112H16.2475H18.8013M18.8013 16V40.5H28.3164L29.2176 42.6112H18.8013" fill="#FF5A26"/>
<path d="M73.736 41.32C72.0933 41.32 70.568 41.032 69.16 40.456C67.752 39.8587 66.5147 39.0373 65.448 37.992C64.4027 36.9253 63.592 35.688 63.016 34.28C62.4613 32.872 62.184 31.3573 62.184 29.736C62.184 28.1147 62.4613 26.6 63.016 25.192C63.592 23.784 64.4027 22.5573 65.448 21.512C66.5147 20.4667 67.7413 19.6453 69.128 19.048C70.536 18.4507 72.072 18.152 73.736 18.152C75.528 18.152 77.1067 18.4507 78.472 19.048C79.8373 19.624 81.0427 20.424 82.088 21.448L79.144 24.392C78.5253 23.7093 77.768 23.176 76.872 22.792C75.976 22.408 74.9307 22.216 73.736 22.216C72.6907 22.216 71.7307 22.3973 70.856 22.76C70.0027 23.1013 69.256 23.6133 68.616 24.296C67.976 24.9573 67.4853 25.7573 67.144 26.696C66.8027 27.6133 66.632 28.6267 66.632 29.736C66.632 30.8667 66.8027 31.8907 67.144 32.808C67.4853 33.7253 67.976 34.5253 68.616 35.208C69.256 35.8693 70.0027 36.3813 70.856 36.744C71.7307 37.1067 72.6907 37.288 73.736 37.288C74.9947 37.288 76.072 37.096 76.968 36.712C77.8853 36.328 78.6533 35.784 79.272 35.08L82.216 38.024C81.1707 39.0693 79.9547 39.88 78.568 40.456C77.1813 41.032 75.5707 41.32 73.736 41.32ZM90.8513 41.32C89.4433 41.32 88.1739 40.968 87.0433 40.264C85.9126 39.56 85.0273 38.6 84.3873 37.384C83.7473 36.168 83.4273 34.8027 83.4273 33.288C83.4273 31.752 83.7473 30.376 84.3873 29.16C85.0273 27.944 85.9126 26.984 87.0433 26.28C88.1739 25.576 89.4433 25.224 90.8513 25.224C91.9606 25.224 92.9526 25.448 93.8273 25.896C94.7019 26.344 95.3953 26.9733 95.9073 27.784C96.4406 28.5733 96.7286 29.4693 96.7713 30.472V36.04C96.7286 37.064 96.4406 37.9707 95.9073 38.76C95.3953 39.5493 94.7019 40.1787 93.8273 40.648C92.9526 41.096 91.9606 41.32 90.8513 41.32ZM91.6193 37.448C92.7926 37.448 93.7419 37.064 94.4673 36.296C95.1926 35.5067 95.5553 34.4933 95.5553 33.256C95.5553 32.4453 95.3846 31.7307 95.0433 31.112C94.7233 30.472 94.2646 29.9813 93.6673 29.64C93.0913 29.2773 92.4086 29.096 91.6193 29.096C90.8513 29.096 90.1686 29.2773 89.5713 29.64C88.9953 29.9813 88.5366 30.472 88.1953 31.112C87.8753 31.7307 87.7153 32.4453 87.7153 33.256C87.7153 34.088 87.8753 34.824 88.1953 35.464C88.5366 36.0827 88.9953 36.5733 89.5713 36.936C90.1686 37.2773 90.8513 37.448 91.6193 37.448ZM95.3313 41V36.84L96.0033 33.064L95.3313 29.352V25.544H99.4913V41H95.3313ZM103.2 41V25.544H107.392V41H103.2ZM113.28 41V31.88C113.28 30.984 112.992 30.2907 112.416 29.8C111.861 29.288 111.168 29.032 110.336 29.032C109.781 29.032 109.28 29.1493 108.832 29.384C108.384 29.5973 108.032 29.9173 107.776 30.344C107.52 30.7707 107.392 31.2827 107.392 31.88L105.76 31.08C105.76 29.8853 106.016 28.8507 106.528 27.976C107.061 27.1013 107.776 26.4293 108.672 25.96C109.568 25.4693 110.581 25.224 111.712 25.224C112.778 25.224 113.749 25.4693 114.624 25.96C115.498 26.4293 116.192 27.1013 116.704 27.976C117.216 28.8293 117.472 29.864 117.472 31.08V41H113.28ZM123.36 41V31.88C123.36 30.984 123.072 30.2907 122.496 29.8C121.941 29.288 121.248 29.032 120.416 29.032C119.882 29.032 119.381 29.1493 118.912 29.384C118.464 29.5973 118.112 29.9173 117.856 30.344C117.6 30.7707 117.472 31.2827 117.472 31.88L115.072 31.304C115.157 30.0667 115.488 29 116.064 28.104C116.64 27.1867 117.397 26.4827 118.336 25.992C119.274 25.48 120.32 25.224 121.472 25.224C122.624 25.224 123.658 25.4693 124.576 25.96C125.493 26.4293 126.218 27.112 126.752 28.008C127.285 28.904 127.552 29.9707 127.552 31.208V41H123.36ZM139.526 41.32C138.416 41.32 137.414 41.096 136.518 40.648C135.622 40.1787 134.907 39.5493 134.374 38.76C133.84 37.9707 133.552 37.064 133.51 36.04V30.568C133.552 29.544 133.84 28.6373 134.374 27.848C134.928 27.0373 135.643 26.3973 136.518 25.928C137.414 25.4587 138.416 25.224 139.526 25.224C140.955 25.224 142.235 25.576 143.366 26.28C144.496 26.984 145.382 27.944 146.022 29.16C146.683 30.376 147.014 31.752 147.014 33.288C147.014 34.8027 146.683 36.168 146.022 37.384C145.382 38.6 144.496 39.56 143.366 40.264C142.235 40.968 140.955 41.32 139.526 41.32ZM138.79 37.448C139.558 37.448 140.24 37.2773 140.838 36.936C141.435 36.5733 141.894 36.0827 142.214 35.464C142.555 34.824 142.726 34.088 142.726 33.256C142.726 32.4453 142.555 31.7307 142.214 31.112C141.894 30.472 141.435 29.9813 140.838 29.64C140.24 29.2773 139.558 29.096 138.79 29.096C138.043 29.096 137.371 29.2773 136.774 29.64C136.176 29.9813 135.707 30.472 135.366 31.112C135.046 31.7307 134.886 32.4453 134.886 33.256C134.886 34.088 135.046 34.824 135.366 35.464C135.707 36.0827 136.166 36.5733 136.742 36.936C137.339 37.2773 138.022 37.448 138.79 37.448ZM130.95 47.464V25.544H135.142V29.608L134.438 33.352L135.11 37.096V47.464H130.95ZM156.226 47.848C154.584 47.848 153.133 47.5493 151.874 46.952C150.616 46.376 149.613 45.5547 148.866 44.488L151.522 41.832C152.12 42.536 152.781 43.0693 153.506 43.432C154.253 43.816 155.149 44.008 156.194 44.008C157.496 44.008 158.52 43.6773 159.266 43.016C160.034 42.3547 160.418 41.4373 160.418 40.264V36.392L161.122 33L160.45 29.608V25.544H164.61V40.2C164.61 41.736 164.248 43.0693 163.522 44.2C162.818 45.352 161.837 46.248 160.578 46.888C159.32 47.528 157.869 47.848 156.226 47.848ZM156.034 40.584C154.648 40.584 153.4 40.2533 152.29 39.592C151.181 38.9093 150.306 37.9813 149.666 36.808C149.048 35.6347 148.738 34.3227 148.738 32.872C148.738 31.4213 149.048 30.12 149.666 28.968C150.306 27.816 151.181 26.9093 152.29 26.248C153.4 25.5653 154.648 25.224 156.034 25.224C157.186 25.224 158.2 25.448 159.074 25.896C159.97 26.344 160.674 26.9627 161.186 27.752C161.698 28.52 161.976 29.4267 162.018 30.472V35.336C161.976 36.36 161.688 37.2773 161.154 38.088C160.642 38.8773 159.938 39.496 159.042 39.944C158.168 40.3707 157.165 40.584 156.034 40.584ZM156.866 36.776C157.634 36.776 158.296 36.616 158.85 36.296C159.426 35.9547 159.874 35.496 160.194 34.92C160.514 34.3227 160.674 33.6507 160.674 32.904C160.674 32.136 160.514 31.464 160.194 30.888C159.874 30.312 159.426 29.864 158.85 29.544C158.296 29.2027 157.634 29.032 156.866 29.032C156.098 29.032 155.426 29.2027 154.85 29.544C154.274 29.864 153.826 30.3227 153.506 30.92C153.186 31.496 153.026 32.1573 153.026 32.904C153.026 33.6293 153.186 34.2907 153.506 34.888C153.826 35.464 154.274 35.9227 154.85 36.264C155.426 36.6053 156.098 36.776 156.866 36.776ZM168.294 41V25.544H172.486V41H168.294ZM172.486 32.456L170.854 31.368C171.046 29.4693 171.6 27.976 172.518 26.888C173.435 25.7787 174.758 25.224 176.486 25.224C177.232 25.224 177.904 25.352 178.502 25.608C179.099 25.8427 179.643 26.2373 180.134 26.792L177.51 29.8C177.275 29.544 176.987 29.352 176.646 29.224C176.326 29.096 175.952 29.032 175.526 29.032C174.63 29.032 173.894 29.32 173.318 29.896C172.763 30.4507 172.486 31.304 172.486 32.456ZM188.433 41.32C186.875 41.32 185.467 40.968 184.209 40.264C182.971 39.5387 181.979 38.568 181.233 37.352C180.507 36.1147 180.145 34.7387 180.145 33.224C180.145 31.7093 180.507 30.3547 181.233 29.16C181.958 27.944 182.95 26.984 184.209 26.28C185.467 25.5547 186.865 25.192 188.401 25.192C189.979 25.192 191.387 25.5547 192.625 26.28C193.883 26.984 194.875 27.944 195.601 29.16C196.326 30.3547 196.689 31.7093 196.689 33.224C196.689 34.7387 196.326 36.1147 195.601 37.352C194.875 38.568 193.883 39.5387 192.625 40.264C191.387 40.968 189.99 41.32 188.433 41.32ZM188.401 37.416C189.19 37.416 189.883 37.2453 190.481 36.904C191.099 36.5413 191.569 36.0507 191.889 35.432C192.23 34.792 192.401 34.0667 192.401 33.256C192.401 32.4453 192.23 31.7307 191.889 31.112C191.547 30.4933 191.078 30.0133 190.481 29.672C189.883 29.3093 189.19 29.128 188.401 29.128C187.633 29.128 186.95 29.3093 186.353 29.672C185.755 30.0133 185.286 30.4933 184.945 31.112C184.603 31.7307 184.433 32.4453 184.433 33.256C184.433 34.0667 184.603 34.792 184.945 35.432C185.286 36.0507 185.755 36.5413 186.353 36.904C186.95 37.2453 187.633 37.416 188.401 37.416ZM205.979 41.32C204.614 41.32 203.398 41.032 202.331 40.456C201.286 39.88 200.465 39.08 199.867 38.056C199.27 37.032 198.971 35.848 198.971 34.504V25.544H203.195V34.408C203.195 35.048 203.302 35.6027 203.515 36.072C203.729 36.52 204.049 36.8613 204.475 37.096C204.902 37.3307 205.403 37.448 205.979 37.448C206.854 37.448 207.537 37.1813 208.027 36.648C208.518 36.1147 208.763 35.368 208.763 34.408V25.544H212.955V34.504C212.955 35.8693 212.657 37.064 212.059 38.088C211.483 39.112 210.662 39.912 209.595 40.488C208.55 41.0427 207.345 41.32 205.979 41.32ZM226.694 41V32.136C226.694 31.2187 226.406 30.472 225.83 29.896C225.254 29.32 224.507 29.032 223.59 29.032C222.992 29.032 222.459 29.16 221.99 29.416C221.52 29.672 221.147 30.0347 220.87 30.504C220.614 30.9733 220.486 31.5173 220.486 32.136L218.854 31.304C218.854 30.088 219.11 29.032 219.622 28.136C220.155 27.2187 220.88 26.504 221.798 25.992C222.736 25.48 223.792 25.224 224.966 25.224C226.096 25.224 227.11 25.512 228.006 26.088C228.902 26.6427 229.606 27.3787 230.118 28.296C230.63 29.192 230.885 30.1627 230.885 31.208V41H226.694ZM216.294 41V25.544H220.486V41H216.294ZM240.79 41.32C239.361 41.32 238.081 40.968 236.95 40.264C235.82 39.56 234.924 38.6 234.262 37.384C233.622 36.168 233.302 34.8027 233.302 33.288C233.302 31.752 233.622 30.376 234.262 29.16C234.924 27.944 235.809 26.984 236.918 26.28C238.049 25.576 239.34 25.224 240.79 25.224C241.9 25.224 242.892 25.448 243.766 25.896C244.662 26.344 245.377 26.9733 245.91 27.784C246.465 28.5733 246.764 29.4693 246.806 30.472V35.976C246.764 36.9787 246.476 37.8853 245.942 38.696C245.409 39.5067 244.694 40.1467 243.798 40.616C242.902 41.0853 241.9 41.32 240.79 41.32ZM241.494 37.448C242.284 37.448 242.966 37.2773 243.542 36.936C244.14 36.5733 244.598 36.0827 244.918 35.464C245.26 34.824 245.43 34.088 245.43 33.256C245.43 32.4453 245.26 31.7307 244.918 31.112C244.598 30.472 244.14 29.9813 243.542 29.64C242.966 29.2773 242.294 29.096 241.526 29.096C240.737 29.096 240.044 29.2773 239.446 29.64C238.87 30.0027 238.412 30.4933 238.07 31.112C237.75 31.7307 237.59 32.4453 237.59 33.256C237.59 34.088 237.75 34.824 238.07 35.464C238.412 36.0827 238.881 36.5733 239.478 36.936C240.076 37.2773 240.748 37.448 241.494 37.448ZM249.366 41H245.206V36.84L245.878 33.064L245.174 29.352V17.864H249.366V41Z" fill="#FF5A26"/>
</svg>
