<svg width="858" height="206" viewBox="0 0 858 206" fill="none" xmlns="http://www.w3.org/2000/svg">
<rect width="857.42" height="206" transform="translate(0.565002)" fill="#FF5A26"/>
<path d="M111.092 148.047L75.8283 57.9566M111.092 148.047H185.173C186.428 148.047 187.217 146.692 186.598 145.601L143.423 69.4684C143.119 68.931 142.547 68.6119 141.93 68.633C116.11 69.5176 75.8283 57.7311 75.8283 57.9566M111.092 148.047H88.34H85.3787H75.8283M75.8283 57.9566L41.4398 145.812C41.0194 146.886 41.8115 148.047 42.9652 148.047H67.1825H75.8283M75.8283 57.9566V148.047" stroke="white" stroke-width="11.375"/>
<path d="M256.285 141.1C251.018 141.1 246.118 140.2 241.585 138.4C237.118 136.533 233.185 133.933 229.785 130.6C226.452 127.267 223.852 123.4 221.985 119C220.118 114.533 219.185 109.733 219.185 104.6C219.185 99.4667 220.118 94.7 221.985 90.3C223.852 85.8333 226.452 81.9667 229.785 78.7C233.118 75.4333 237.018 72.9 241.485 71.1C246.018 69.2333 250.918 68.3 256.185 68.3C261.785 68.3 266.752 69.2 271.085 71C275.485 72.8 279.318 75.2667 282.585 78.4L272.085 89C270.218 87 267.952 85.4333 265.285 84.3C262.685 83.1667 259.652 82.6 256.185 82.6C253.118 82.6 250.285 83.1333 247.685 84.2C245.152 85.2 242.952 86.6667 241.085 88.6C239.285 90.5333 237.852 92.8667 236.785 95.6C235.785 98.3333 235.285 101.333 235.285 104.6C235.285 107.933 235.785 110.967 236.785 113.7C237.852 116.433 239.285 118.767 241.085 120.7C242.952 122.633 245.152 124.133 247.685 125.2C250.285 126.267 253.118 126.8 256.185 126.8C259.785 126.8 262.918 126.233 265.585 125.1C268.252 123.967 270.552 122.4 272.485 120.4L283.085 131C279.685 134.133 275.785 136.6 271.385 138.4C267.052 140.2 262.018 141.1 256.285 141.1ZM309.458 141C304.992 141 300.992 139.9 297.458 137.7C293.992 135.5 291.225 132.5 289.158 128.7C287.158 124.9 286.158 120.567 286.158 115.7C286.158 110.833 287.158 106.5 289.158 102.7C291.225 98.9 293.992 95.9 297.458 93.7C300.992 91.5 304.992 90.4 309.458 90.4C312.725 90.4 315.658 91.0333 318.258 92.3C320.925 93.5667 323.092 95.3333 324.758 97.6C326.425 99.8 327.358 102.333 327.558 105.2V126.2C327.358 129.067 326.425 131.633 324.758 133.9C323.158 136.1 321.025 137.833 318.358 139.1C315.692 140.367 312.725 141 309.458 141ZM312.558 127.2C315.825 127.2 318.458 126.133 320.458 124C322.458 121.8 323.458 119.033 323.458 115.7C323.458 113.433 322.992 111.433 322.058 109.7C321.192 107.967 319.925 106.633 318.258 105.7C316.658 104.7 314.792 104.2 312.658 104.2C310.525 104.2 308.625 104.7 306.958 105.7C305.358 106.633 304.058 107.967 303.058 109.7C302.125 111.433 301.658 113.433 301.658 115.7C301.658 117.9 302.125 119.867 303.058 121.6C303.992 123.333 305.292 124.7 306.958 125.7C308.625 126.7 310.492 127.2 312.558 127.2ZM322.858 140V126.9L325.158 115.1L322.858 103.3V91.4H337.858V140H322.858ZM348.631 140V91.4H363.931V140H348.631ZM379.731 140V111.6C379.731 109.133 378.964 107.233 377.431 105.9C375.964 104.5 374.131 103.8 371.931 103.8C370.398 103.8 369.031 104.133 367.831 104.8C366.631 105.4 365.664 106.267 364.931 107.4C364.264 108.533 363.931 109.933 363.931 111.6L358.031 109C358.031 105.133 358.864 101.833 360.531 99.1C362.198 96.3 364.464 94.1667 367.331 92.7C370.198 91.1667 373.431 90.4 377.031 90.4C380.431 90.4 383.464 91.1667 386.131 92.7C388.864 94.2333 391.031 96.3667 392.631 99.1C394.231 101.833 395.031 105.1 395.031 108.9V140H379.731ZM410.831 140V111.6C410.831 109.133 410.064 107.233 408.531 105.9C407.064 104.5 405.231 103.8 403.031 103.8C401.498 103.8 400.131 104.133 398.931 104.8C397.731 105.4 396.764 106.267 396.031 107.4C395.364 108.533 395.031 109.933 395.031 111.6L386.231 110.4C386.364 106.267 387.331 102.733 389.131 99.8C390.998 96.8 393.431 94.5 396.431 92.9C399.498 91.2333 402.931 90.4 406.731 90.4C410.464 90.4 413.764 91.2 416.631 92.8C419.564 94.3333 421.864 96.5667 423.531 99.5C425.264 102.367 426.131 105.833 426.131 109.9V140H410.831ZM463.936 141C460.669 141 457.669 140.367 454.936 139.1C452.202 137.833 449.969 136.1 448.236 133.9C446.502 131.633 445.502 129.067 445.236 126.2V105.7C445.502 102.833 446.502 100.233 448.236 97.9C449.969 95.5667 452.202 93.7333 454.936 92.4C457.669 91.0667 460.669 90.4 463.936 90.4C468.536 90.4 472.602 91.5 476.136 93.7C479.736 95.9 482.536 98.9 484.536 102.7C486.602 106.5 487.636 110.833 487.636 115.7C487.636 120.567 486.602 124.9 484.536 128.7C482.536 132.5 479.736 135.5 476.136 137.7C472.602 139.9 468.536 141 463.936 141ZM461.136 127.2C463.336 127.2 465.236 126.7 466.836 125.7C468.502 124.7 469.802 123.333 470.736 121.6C471.669 119.867 472.136 117.9 472.136 115.7C472.136 113.433 471.669 111.433 470.736 109.7C469.802 107.967 468.502 106.633 466.836 105.7C465.236 104.7 463.369 104.2 461.236 104.2C459.102 104.2 457.202 104.7 455.536 105.7C453.936 106.633 452.669 107.967 451.736 109.7C450.802 111.433 450.336 113.433 450.336 115.7C450.336 117.9 450.769 119.867 451.636 121.6C452.569 123.333 453.869 124.7 455.536 125.7C457.202 126.7 459.069 127.2 461.136 127.2ZM435.936 160.5V91.4H451.236V103.9L448.736 115.7L451.036 127.5V160.5H435.936ZM516.008 161.8C510.675 161.8 505.975 160.867 501.908 159C497.908 157.2 494.742 154.633 492.408 151.3L501.808 141.9C503.542 143.967 505.475 145.533 507.608 146.6C509.808 147.667 512.442 148.2 515.508 148.2C519.308 148.2 522.275 147.267 524.408 145.4C526.608 143.533 527.708 140.9 527.708 137.5V125.1L530.308 114.5L528.008 103.9V91.4H543.008V137.1C543.008 142.1 541.842 146.433 539.508 150.1C537.175 153.767 533.975 156.633 529.908 158.7C525.842 160.767 521.208 161.8 516.008 161.8ZM515.308 138.5C510.842 138.5 506.875 137.433 503.408 135.3C499.942 133.167 497.208 130.267 495.208 126.6C493.208 122.933 492.208 118.867 492.208 114.4C492.208 109.867 493.208 105.8 495.208 102.2C497.208 98.5333 499.942 95.6667 503.408 93.6C506.875 91.4667 510.842 90.4 515.308 90.4C518.642 90.4 521.608 91.0333 524.208 92.3C526.875 93.5 529.008 95.2333 530.608 97.5C532.275 99.7 533.208 102.267 533.408 105.2V123.7C533.208 126.567 532.275 129.133 530.608 131.4C529.008 133.6 526.875 135.333 524.208 136.6C521.542 137.867 518.575 138.5 515.308 138.5ZM518.208 124.9C520.342 124.9 522.175 124.433 523.708 123.5C525.308 122.567 526.508 121.333 527.308 119.8C528.175 118.2 528.608 116.4 528.608 114.4C528.608 112.4 528.175 110.6 527.308 109C526.508 107.4 525.308 106.133 523.708 105.2C522.175 104.267 520.342 103.8 518.208 103.8C516.142 103.8 514.308 104.267 512.708 105.2C511.108 106.133 509.875 107.4 509.008 109C508.142 110.6 507.708 112.4 507.708 114.4C507.708 116.267 508.142 118.033 509.008 119.7C509.875 121.3 511.075 122.567 512.608 123.5C514.208 124.433 516.075 124.9 518.208 124.9ZM553.807 140V91.4H569.107V140H553.807ZM569.107 113.3L562.707 108.3C563.974 102.633 566.107 98.2333 569.107 95.1C572.107 91.9667 576.274 90.4 581.607 90.4C583.94 90.4 585.974 90.7667 587.707 91.5C589.507 92.1667 591.074 93.2333 592.407 94.7L583.307 106.2C582.64 105.467 581.807 104.9 580.807 104.5C579.807 104.1 578.674 103.9 577.407 103.9C574.874 103.9 572.84 104.7 571.307 106.3C569.84 107.833 569.107 110.167 569.107 113.3ZM618.515 141.1C613.515 141.1 608.982 140 604.915 137.8C600.915 135.533 597.749 132.467 595.415 128.6C593.082 124.733 591.915 120.4 591.915 115.6C591.915 110.8 593.082 106.5 595.415 102.7C597.749 98.9 600.915 95.9 604.915 93.7C608.915 91.4333 613.449 90.3 618.515 90.3C623.582 90.3 628.115 91.4 632.115 93.6C636.115 95.8 639.282 98.8333 641.615 102.7C643.949 106.5 645.115 110.8 645.115 115.6C645.115 120.4 643.949 124.733 641.615 128.6C639.282 132.467 636.115 135.533 632.115 137.8C628.115 140 623.582 141.1 618.515 141.1ZM618.515 127.2C620.715 127.2 622.649 126.733 624.315 125.8C625.982 124.8 627.249 123.433 628.115 121.7C629.049 119.9 629.515 117.867 629.515 115.6C629.515 113.333 629.049 111.367 628.115 109.7C627.182 107.967 625.882 106.633 624.215 105.7C622.615 104.7 620.715 104.2 618.515 104.2C616.382 104.2 614.482 104.7 612.815 105.7C611.149 106.633 609.849 107.967 608.915 109.7C607.982 111.433 607.515 113.433 607.515 115.7C607.515 117.9 607.982 119.9 608.915 121.7C609.849 123.433 611.149 124.8 612.815 125.8C614.482 126.733 616.382 127.2 618.515 127.2ZM674.333 141.1C669.866 141.1 665.899 140.2 662.433 138.4C659.033 136.533 656.366 134 654.433 130.8C652.499 127.533 651.533 123.8 651.533 119.6V91.4H666.833V119.4C666.833 121.067 667.099 122.5 667.633 123.7C668.233 124.9 669.099 125.833 670.233 126.5C671.366 127.167 672.733 127.5 674.333 127.5C676.599 127.5 678.399 126.8 679.733 125.4C681.066 123.933 681.733 121.933 681.733 119.4V91.4H697.033V119.5C697.033 123.767 696.066 127.533 694.133 130.8C692.199 134 689.533 136.533 686.133 138.4C682.733 140.2 678.799 141.1 674.333 141.1ZM738.739 140V112.3C738.739 109.767 737.939 107.733 736.339 106.2C734.806 104.6 732.839 103.8 730.439 103.8C728.772 103.8 727.306 104.167 726.039 104.9C724.772 105.567 723.772 106.567 723.039 107.9C722.306 109.167 721.939 110.633 721.939 112.3L716.039 109.4C716.039 105.6 716.872 102.267 718.539 99.4C720.206 96.5333 722.506 94.3333 725.439 92.8C728.439 91.2 731.806 90.4 735.539 90.4C739.139 90.4 742.306 91.2667 745.039 93C747.839 94.6667 750.039 96.9 751.639 99.7C753.239 102.5 754.039 105.567 754.039 108.9V140H738.739ZM706.639 140V91.4H721.939V140H706.639ZM784.565 141C779.965 141 775.865 139.9 772.265 137.7C768.732 135.5 765.932 132.5 763.865 128.7C761.865 124.9 760.865 120.567 760.865 115.7C760.865 110.833 761.865 106.5 763.865 102.7C765.932 98.9 768.732 95.9 772.265 93.7C775.865 91.5 779.965 90.4 784.565 90.4C787.899 90.4 790.899 91.0333 793.565 92.3C796.299 93.5667 798.532 95.3333 800.265 97.6C802.065 99.8 803.065 102.333 803.265 105.2V125.7C803.065 128.567 802.099 131.167 800.365 133.5C798.632 135.767 796.399 137.6 793.665 139C790.932 140.333 787.899 141 784.565 141ZM787.265 127.2C789.465 127.2 791.365 126.733 792.965 125.8C794.565 124.8 795.832 123.433 796.765 121.7C797.699 119.967 798.165 117.967 798.165 115.7C798.165 113.433 797.699 111.467 796.765 109.8C795.899 108.067 794.632 106.7 792.965 105.7C791.365 104.7 789.499 104.2 787.365 104.2C785.232 104.2 783.332 104.7 781.665 105.7C780.065 106.7 778.765 108.067 777.765 109.8C776.832 111.533 776.365 113.5 776.365 115.7C776.365 117.9 776.832 119.867 777.765 121.6C778.699 123.333 779.999 124.7 781.665 125.7C783.332 126.7 785.199 127.2 787.265 127.2ZM812.565 140H797.565V126.9L799.865 115.1L797.265 103.3V67.4H812.565V140Z" fill="white"/>
</svg>
