<svg width="263" height="64" viewBox="0 0 263 64" fill="none" xmlns="http://www.w3.org/2000/svg">
<path d="M31.0597 44.6112L20.6434 18M31.0597 44.6112H52.9422C53.313 44.6112 53.546 44.2113 53.3631 43.8887L40.61 21.4004C40.5199 21.2417 40.346 21.1474 40.1637 21.1554C32.7373 21.4869 28.4071 20.7662 20.6434 18M31.0597 44.6112H24.3392H23.4645H20.6434M20.6434 18L10.4857 43.951C10.3614 44.2684 10.5955 44.6112 10.9362 44.6112H18.0896H20.6434M20.6434 18V44.6112" stroke="white" stroke-width="3.5"/>
<path d="M76.736 43.32C75.0933 43.32 73.568 43.032 72.16 42.456C70.752 41.8587 69.5147 41.0373 68.448 39.992C67.4027 38.9253 66.592 37.688 66.016 36.28C65.4613 34.872 65.184 33.3573 65.184 31.736C65.184 30.1147 65.4613 28.6 66.016 27.192C66.592 25.784 67.4027 24.5573 68.448 23.512C69.5147 22.4667 70.7413 21.6453 72.128 21.048C73.536 20.4507 75.072 20.152 76.736 20.152C78.528 20.152 80.1067 20.4507 81.472 21.048C82.8373 21.624 84.0427 22.424 85.088 23.448L82.144 26.392C81.5253 25.7093 80.768 25.176 79.872 24.792C78.976 24.408 77.9307 24.216 76.736 24.216C75.6907 24.216 74.7307 24.3973 73.856 24.76C73.0027 25.1013 72.256 25.6133 71.616 26.296C70.976 26.9573 70.4853 27.7573 70.144 28.696C69.8027 29.6133 69.632 30.6267 69.632 31.736C69.632 32.8667 69.8027 33.8907 70.144 34.808C70.4853 35.7253 70.976 36.5253 71.616 37.208C72.256 37.8693 73.0027 38.3813 73.856 38.744C74.7307 39.1067 75.6907 39.288 76.736 39.288C77.9947 39.288 79.072 39.096 79.968 38.712C80.8853 38.328 81.6533 37.784 82.272 37.08L85.216 40.024C84.1707 41.0693 82.9547 41.88 81.568 42.456C80.1813 43.032 78.5707 43.32 76.736 43.32ZM93.8513 43.32C92.4433 43.32 91.1739 42.968 90.0433 42.264C88.9126 41.56 88.0273 40.6 87.3873 39.384C86.7473 38.168 86.4273 36.8027 86.4273 35.288C86.4273 33.752 86.7473 32.376 87.3873 31.16C88.0273 29.944 88.9126 28.984 90.0433 28.28C91.1739 27.576 92.4433 27.224 93.8513 27.224C94.9606 27.224 95.9526 27.448 96.8273 27.896C97.7019 28.344 98.3953 28.9733 98.9073 29.784C99.4406 30.5733 99.7286 31.4693 99.7713 32.472V38.04C99.7286 39.064 99.4406 39.9707 98.9073 40.76C98.3953 41.5493 97.7019 42.1787 96.8273 42.648C95.9526 43.096 94.9606 43.32 93.8513 43.32ZM94.6193 39.448C95.7926 39.448 96.7419 39.064 97.4673 38.296C98.1926 37.5067 98.5553 36.4933 98.5553 35.256C98.5553 34.4453 98.3846 33.7307 98.0433 33.112C97.7233 32.472 97.2646 31.9813 96.6673 31.64C96.0913 31.2773 95.4086 31.096 94.6193 31.096C93.8513 31.096 93.1686 31.2773 92.5713 31.64C91.9953 31.9813 91.5366 32.472 91.1953 33.112C90.8753 33.7307 90.7153 34.4453 90.7153 35.256C90.7153 36.088 90.8753 36.824 91.1953 37.464C91.5366 38.0827 91.9953 38.5733 92.5713 38.936C93.1686 39.2773 93.8513 39.448 94.6193 39.448ZM98.3313 43V38.84L99.0033 35.064L98.3313 31.352V27.544H102.491V43H98.3313ZM106.2 43V27.544H110.392V43H106.2ZM116.28 43V33.88C116.28 32.984 115.992 32.2907 115.416 31.8C114.861 31.288 114.168 31.032 113.336 31.032C112.781 31.032 112.28 31.1493 111.832 31.384C111.384 31.5973 111.032 31.9173 110.776 32.344C110.52 32.7707 110.392 33.2827 110.392 33.88L108.76 33.08C108.76 31.8853 109.016 30.8507 109.528 29.976C110.061 29.1013 110.776 28.4293 111.672 27.96C112.568 27.4693 113.581 27.224 114.712 27.224C115.778 27.224 116.749 27.4693 117.624 27.96C118.498 28.4293 119.192 29.1013 119.704 29.976C120.216 30.8293 120.472 31.864 120.472 33.08V43H116.28ZM126.36 43V33.88C126.36 32.984 126.072 32.2907 125.496 31.8C124.941 31.288 124.248 31.032 123.416 31.032C122.882 31.032 122.381 31.1493 121.912 31.384C121.464 31.5973 121.112 31.9173 120.856 32.344C120.6 32.7707 120.472 33.2827 120.472 33.88L118.072 33.304C118.157 32.0667 118.488 31 119.064 30.104C119.64 29.1867 120.397 28.4827 121.336 27.992C122.274 27.48 123.32 27.224 124.472 27.224C125.624 27.224 126.658 27.4693 127.576 27.96C128.493 28.4293 129.218 29.112 129.752 30.008C130.285 30.904 130.552 31.9707 130.552 33.208V43H126.36ZM142.526 43.32C141.416 43.32 140.414 43.096 139.518 42.648C138.622 42.1787 137.907 41.5493 137.374 40.76C136.84 39.9707 136.552 39.064 136.51 38.04V32.568C136.552 31.544 136.84 30.6373 137.374 29.848C137.928 29.0373 138.643 28.3973 139.518 27.928C140.414 27.4587 141.416 27.224 142.526 27.224C143.955 27.224 145.235 27.576 146.366 28.28C147.496 28.984 148.382 29.944 149.022 31.16C149.683 32.376 150.014 33.752 150.014 35.288C150.014 36.8027 149.683 38.168 149.022 39.384C148.382 40.6 147.496 41.56 146.366 42.264C145.235 42.968 143.955 43.32 142.526 43.32ZM141.79 39.448C142.558 39.448 143.24 39.2773 143.838 38.936C144.435 38.5733 144.894 38.0827 145.214 37.464C145.555 36.824 145.726 36.088 145.726 35.256C145.726 34.4453 145.555 33.7307 145.214 33.112C144.894 32.472 144.435 31.9813 143.838 31.64C143.24 31.2773 142.558 31.096 141.79 31.096C141.043 31.096 140.371 31.2773 139.774 31.64C139.176 31.9813 138.707 32.472 138.366 33.112C138.046 33.7307 137.886 34.4453 137.886 35.256C137.886 36.088 138.046 36.824 138.366 37.464C138.707 38.0827 139.166 38.5733 139.742 38.936C140.339 39.2773 141.022 39.448 141.79 39.448ZM133.95 49.464V27.544H138.142V31.608L137.438 35.352L138.11 39.096V49.464H133.95ZM159.226 49.848C157.584 49.848 156.133 49.5493 154.874 48.952C153.616 48.376 152.613 47.5547 151.866 46.488L154.522 43.832C155.12 44.536 155.781 45.0693 156.506 45.432C157.253 45.816 158.149 46.008 159.194 46.008C160.496 46.008 161.52 45.6773 162.266 45.016C163.034 44.3547 163.418 43.4373 163.418 42.264V38.392L164.122 35L163.45 31.608V27.544H167.61V42.2C167.61 43.736 167.248 45.0693 166.522 46.2C165.818 47.352 164.837 48.248 163.578 48.888C162.32 49.528 160.869 49.848 159.226 49.848ZM159.034 42.584C157.648 42.584 156.4 42.2533 155.29 41.592C154.181 40.9093 153.306 39.9813 152.666 38.808C152.048 37.6347 151.738 36.3227 151.738 34.872C151.738 33.4213 152.048 32.12 152.666 30.968C153.306 29.816 154.181 28.9093 155.29 28.248C156.4 27.5653 157.648 27.224 159.034 27.224C160.186 27.224 161.2 27.448 162.074 27.896C162.97 28.344 163.674 28.9627 164.186 29.752C164.698 30.52 164.976 31.4267 165.018 32.472V37.336C164.976 38.36 164.688 39.2773 164.154 40.088C163.642 40.8773 162.938 41.496 162.042 41.944C161.168 42.3707 160.165 42.584 159.034 42.584ZM159.866 38.776C160.634 38.776 161.296 38.616 161.85 38.296C162.426 37.9547 162.874 37.496 163.194 36.92C163.514 36.3227 163.674 35.6507 163.674 34.904C163.674 34.136 163.514 33.464 163.194 32.888C162.874 32.312 162.426 31.864 161.85 31.544C161.296 31.2027 160.634 31.032 159.866 31.032C159.098 31.032 158.426 31.2027 157.85 31.544C157.274 31.864 156.826 32.3227 156.506 32.92C156.186 33.496 156.026 34.1573 156.026 34.904C156.026 35.6293 156.186 36.2907 156.506 36.888C156.826 37.464 157.274 37.9227 157.85 38.264C158.426 38.6053 159.098 38.776 159.866 38.776ZM171.294 43V27.544H175.486V43H171.294ZM175.486 34.456L173.854 33.368C174.046 31.4693 174.6 29.976 175.518 28.888C176.435 27.7787 177.758 27.224 179.486 27.224C180.232 27.224 180.904 27.352 181.502 27.608C182.099 27.8427 182.643 28.2373 183.134 28.792L180.51 31.8C180.275 31.544 179.987 31.352 179.646 31.224C179.326 31.096 178.952 31.032 178.526 31.032C177.63 31.032 176.894 31.32 176.318 31.896C175.763 32.4507 175.486 33.304 175.486 34.456ZM191.433 43.32C189.875 43.32 188.467 42.968 187.209 42.264C185.971 41.5387 184.979 40.568 184.233 39.352C183.507 38.1147 183.145 36.7387 183.145 35.224C183.145 33.7093 183.507 32.3547 184.233 31.16C184.958 29.944 185.95 28.984 187.209 28.28C188.467 27.5547 189.865 27.192 191.401 27.192C192.979 27.192 194.387 27.5547 195.625 28.28C196.883 28.984 197.875 29.944 198.601 31.16C199.326 32.3547 199.689 33.7093 199.689 35.224C199.689 36.7387 199.326 38.1147 198.601 39.352C197.875 40.568 196.883 41.5387 195.625 42.264C194.387 42.968 192.99 43.32 191.433 43.32ZM191.401 39.416C192.19 39.416 192.883 39.2453 193.481 38.904C194.099 38.5413 194.569 38.0507 194.889 37.432C195.23 36.792 195.401 36.0667 195.401 35.256C195.401 34.4453 195.23 33.7307 194.889 33.112C194.547 32.4933 194.078 32.0133 193.481 31.672C192.883 31.3093 192.19 31.128 191.401 31.128C190.633 31.128 189.95 31.3093 189.353 31.672C188.755 32.0133 188.286 32.4933 187.945 33.112C187.603 33.7307 187.433 34.4453 187.433 35.256C187.433 36.0667 187.603 36.792 187.945 37.432C188.286 38.0507 188.755 38.5413 189.353 38.904C189.95 39.2453 190.633 39.416 191.401 39.416ZM208.979 43.32C207.614 43.32 206.398 43.032 205.331 42.456C204.286 41.88 203.465 41.08 202.867 40.056C202.27 39.032 201.971 37.848 201.971 36.504V27.544H206.195V36.408C206.195 37.048 206.302 37.6027 206.515 38.072C206.729 38.52 207.049 38.8613 207.475 39.096C207.902 39.3307 208.403 39.448 208.979 39.448C209.854 39.448 210.537 39.1813 211.027 38.648C211.518 38.1147 211.763 37.368 211.763 36.408V27.544H215.955V36.504C215.955 37.8693 215.657 39.064 215.059 40.088C214.483 41.112 213.662 41.912 212.595 42.488C211.55 43.0427 210.345 43.32 208.979 43.32ZM229.694 43V34.136C229.694 33.2187 229.406 32.472 228.83 31.896C228.254 31.32 227.507 31.032 226.59 31.032C225.992 31.032 225.459 31.16 224.99 31.416C224.52 31.672 224.147 32.0347 223.87 32.504C223.614 32.9733 223.486 33.5173 223.486 34.136L221.854 33.304C221.854 32.088 222.11 31.032 222.622 30.136C223.155 29.2187 223.88 28.504 224.798 27.992C225.736 27.48 226.792 27.224 227.966 27.224C229.096 27.224 230.11 27.512 231.006 28.088C231.902 28.6427 232.606 29.3787 233.118 30.296C233.63 31.192 233.885 32.1627 233.885 33.208V43H229.694ZM219.294 43V27.544H223.486V43H219.294ZM243.79 43.32C242.361 43.32 241.081 42.968 239.95 42.264C238.82 41.56 237.924 40.6 237.262 39.384C236.622 38.168 236.302 36.8027 236.302 35.288C236.302 33.752 236.622 32.376 237.262 31.16C237.924 29.944 238.809 28.984 239.918 28.28C241.049 27.576 242.34 27.224 243.79 27.224C244.9 27.224 245.892 27.448 246.766 27.896C247.662 28.344 248.377 28.9733 248.91 29.784C249.465 30.5733 249.764 31.4693 249.806 32.472V37.976C249.764 38.9787 249.476 39.8853 248.942 40.696C248.409 41.5067 247.694 42.1467 246.798 42.616C245.902 43.0853 244.9 43.32 243.79 43.32ZM244.494 39.448C245.284 39.448 245.966 39.2773 246.542 38.936C247.14 38.5733 247.598 38.0827 247.918 37.464C248.26 36.824 248.43 36.088 248.43 35.256C248.43 34.4453 248.26 33.7307 247.918 33.112C247.598 32.472 247.14 31.9813 246.542 31.64C245.966 31.2773 245.294 31.096 244.526 31.096C243.737 31.096 243.044 31.2773 242.446 31.64C241.87 32.0027 241.412 32.4933 241.07 33.112C240.75 33.7307 240.59 34.4453 240.59 35.256C240.59 36.088 240.75 36.824 241.07 37.464C241.412 38.0827 241.881 38.5733 242.478 38.936C243.076 39.2773 243.748 39.448 244.494 39.448ZM252.366 43H248.206V38.84L248.878 35.064L248.174 31.352V19.864H252.366V43Z" fill="white"/>
</svg>
